HIERARCHY
ROOT Hips
{
	OFFSET 52.657501 -4.600165 91.721703
	CHANNELS 6 Xposition Yposition Zposition Xrotation Yrotation Zrotation
	JOINT spine
	{
		OFFSET 0.000000 -0.393702 6.846367
		CHANNELS 3 Xrotation Yrotation Zrotation
		JOINT spine1
		{
			OFFSET 0.000000 -0.000001 9.496208
			CHANNELS 3 Xrotation Yrotation Zrotation
			JOINT spine2
			{
				OFFSET 0.000000 -0.000001 9.099091
				CHANNELS 3 Xrotation Yrotation Zrotation
				JOINT Neck
				{
					OFFSET 0.000000 -1.113784 23.361198
					CHANNELS 3 Xrotation Yrotation Zrotation
					JOINT Head
					{
						OFFSET 0.000000 -0.000001 7.058014
						CHANNELS 3 Xrotation Yrotation Zrotation
						End Site
						{
							OFFSET 0.000000 5.634187 17.084396
						}
					}
				}
				JOINT RightShoulder
				{
					OFFSET -3.831360 0.533490 9.826309
					CHANNELS 3 Xrotation Yrotation Zrotation
					JOINT RightArm
					{
						OFFSET 0.000000 -0.000002 12.888100
						CHANNELS 3 Xrotation Yrotation Zrotation
						JOINT RightArmRoll
						{
							OFFSET 0.000000 -0.000001 6.506165
							CHANNELS 3 Xrotation Yrotation Zrotation
							JOINT RightForeArm
							{
								OFFSET 0.000000 -0.000003 18.950104
								CHANNELS 3 Xrotation Yrotation Zrotation
								JOINT RightForeArmRoll
								{
									OFFSET 0.000000 -0.000001 7.300919
									CHANNELS 3 Xrotation Yrotation Zrotation
									JOINT RightHand
									{
										OFFSET 0.000000 -0.000002 14.651398
										CHANNELS 3 Xrotation Yrotation Zrotation
										End Site
										{
											OFFSET 0.000000 0.000000 0.100006
										}
									}
								}
							}
						}
					}
				}
				JOINT LeftShoulder
				{
					OFFSET 3.831360 0.533490 9.826309
					CHANNELS 3 Xrotation Yrotation Zrotation
					JOINT LeftArm
					{
						OFFSET 0.000000 -0.000002 12.888100
						CHANNELS 3 Xrotation Yrotation Zrotation
						JOINT LeftArmRoll
						{
							OFFSET 0.000000 -0.000001 6.506165
							CHANNELS 3 Xrotation Yrotation Zrotation
							JOINT LeftForeArm
							{
								OFFSET 0.000000 -0.000003 18.950104
								CHANNELS 3 Xrotation Yrotation Zrotation
								JOINT LeftForeArmRoll
								{
									OFFSET 0.000000 -0.000001 7.300919
									CHANNELS 3 Xrotation Yrotation Zrotation
									JOINT LeftHand
									{
										OFFSET 0.000000 -0.000002 14.651398
										CHANNELS 3 Xrotation Yrotation Zrotation
										End Site
										{
											OFFSET 0.000000 0.000000 0.100006
										}
									}
								}
							}
						}
					}
				}
			}
		}
	}
	JOINT RightUpLeg
	{
		OFFSET -6.068371 0.933477 -1.112778
		CHANNELS 3 Xrotation Yrotation Zrotation
		JOINT RightUpLegRoll
		{
			OFFSET 0.000000 -0.000003 17.179604
			CHANNELS 3 Xrotation Yrotation Zrotation
			JOINT RightLeg
			{
				OFFSET 0.000000 0.000004 -21.274300
				CHANNELS 3 Xrotation Yrotation Zrotation
				JOINT RightLegRoll
				{
					OFFSET 0.000000 -0.000004 21.343903
					CHANNELS 3 Xrotation Yrotation Zrotation
					JOINT RightFoot
					{
						OFFSET 0.000000 -0.000003 17.765198
						CHANNELS 3 Xrotation Yrotation Zrotation
						JOINT RightToeBase
						{
							OFFSET 0.000000 -0.000002 14.850792
							CHANNELS 3 Xrotation Yrotation Zrotation
							End Site
							{
								OFFSET 0.006294 0.829003 7.192139
							}
						}
					}
				}
			}
		}
	}
	JOINT LeftUpLeg
	{
		OFFSET 6.068371 0.933477 -1.112778
		CHANNELS 3 Xrotation Yrotation Zrotation
		JOINT LeftUpLegRoll
		{
			OFFSET 0.000000 -0.000003 17.179703
			CHANNELS 3 Xrotation Yrotation Zrotation
			JOINT LeftLeg
			{
				OFFSET 0.000000 -0.000003 21.274208
				CHANNELS 3 Xrotation Yrotation Zrotation
				JOINT LeftLegRoll
				{
					OFFSET 0.000000 -0.000004 21.541199
					CHANNELS 3 Xrotation Yrotation Zrotation
					JOINT LeftFoot
					{
						OFFSET 0.000000 -0.000003 17.567902
						CHANNELS 3 Xrotation Yrotation Zrotation
						JOINT LeftToeBase
						{
							OFFSET 0.000000 -0.000002 14.850800
							CHANNELS 3 Xrotation Yrotation Zrotation
							End Site
							{
								OFFSET -0.028210 0.829004 7.192139
							}
						}
					}
				}
			}
		}
	}
}
MOTION
Frames: 10
Frame Time: 0.041667
53.466404 -5.950016 91.591492 -1.376105 -0.138029 -5.037416 -1.854681 -0.099734 -0.048025 0.293359 -0.191054 -0.090127 1.938441 -0.192120 -0.087829 21.160824 0.493070 -0.538836 -6.195578 1.151636 -0.591790 15.672699 -73.322600 15.322104 -2.445437 -100.570410 16.715133 0.000000 0.000004 -0.000000 14.850937 -7.803053 -0.300236 -0.000000 0.000010 -3.000002 -5.000224 -7.999011 0.000143 12.996499 70.999058 -12.855612 -38.605906 105.029506 10.191326 -0.000001 0.000001 0.000005 0.492707 7.070982 0.168338 -0.000005 -0.000016 3.008460 -5.000205 7.999083 -0.000117 -2.899807 -175.247068 1.400700 -179.999991 0.000005 -1.030000 175.039689 -2.796502 -0.250613 -0.000000 -0.000003 0.038665 68.772963 6.898039 2.125629 25.456957 -7.355622 0.000004 3.080562 175.931862 0.182043 -0.000005 -0.000004 -1.148530 -4.456646 1.396068 0.172626 -0.000001 -0.000002 -0.043134 69.028166 -6.903063 -2.077648 25.456964 7.355615 -0.000001 
53.464806 -5.958196 91.591187 -1.373186 -0.123923 -5.055650 -1.854131 -0.100508 -0.050125 0.294448 -0.193116 -0.095259 1.939521 -0.194244 -0.092936 21.112945 0.499833 -0.532002 -6.136137 1.159401 -0.585986 15.437370 -73.293565 15.073951 -2.469644 -100.613638 16.796878 0.000000 0.000004 -0.000003 14.811917 -7.720962 -0.316320 -0.000000 0.000011 -2.999999 -5.000227 -7.999010 0.000142 12.828921 70.955482 -12.680557 -38.211415 105.045605 9.769493 -0.000000 0.000001 0.000003 0.504366 7.049991 0.168284 -0.000004 -0.000016 3.008460 -5.000204 7.999083 -0.000118 -2.901470 -175.262053 1.392339 -179.999991 0.000005 -1.030001 175.043077 -2.796517 -0.250448 -0.000000 -0.000003 0.038666 68.774759 6.898042 2.125617 25.456957 -7.355624 0.000004 3.078232 175.916877 0.173255 -0.000005 -0.000004 -1.148259 -4.466770 1.396308 0.172994 -0.000001 -0.000002 -0.043385 69.037045 -6.903089 -2.077901 25.456964 7.355615 0.000001 
53.457005 -5.957215 91.594299 -1.370491 -0.109915 -5.074129 -1.853551 -0.101382 -0.052216 0.295613 -0.195409 -0.100419 1.940692 -0.196598 -0.098069 21.065980 0.510538 -0.525709 -6.078134 1.164369 -0.580671 15.200897 -73.261948 14.824973 -2.486252 -100.660808 16.885624 0.000000 0.000004 -0.000001 14.773551 -7.638790 -0.332265 0.000000 0.000010 -3.000002 -5.000224 -7.999011 0.000145 12.668743 70.914050 -12.513269 -37.815595 105.059538 9.345324 -0.000000 0.000000 0.000005 0.516726 7.028937 0.168236 -0.000004 -0.000017 3.008459 -5.000206 7.999082 -0.000116 -2.902991 -175.277052 1.383960 -179.999991 0.000005 -1.030001 175.046356 -2.797523 -0.250374 -0.000000 -0.000003 0.038666 68.776453 6.898040 2.125710 25.456957 -7.355625 0.000005 3.076106 175.901892 0.164358 -0.000005 -0.000005 -1.147990 -4.477113 1.396667 0.173380 -0.000001 -0.000002 -0.043630 69.046116 -6.903056 -2.078228 25.456964 7.355616 -0.000000 
53.455402 -5.959298 91.594093 -1.367953 -0.095978 -5.092771 -1.852940 -0.102324 -0.054304 0.296834 -0.197866 -0.105600 1.941912 -0.199117 -0.103220 21.019429 0.524001 -0.519781 -6.021149 1.167366 -0.575690 14.963963 -73.228384 14.575781 -2.497509 -100.710948 16.979469 0.000000 0.000003 -0.000002 14.735735 -7.556568 -0.348064 0.000001 0.000011 -3.000000 -5.000225 -7.999011 0.000143 12.513824 70.873875 -12.351486 -37.420346 105.071696 8.921036 -0.000000 0.000001 0.000003 0.529568 7.007824 0.168195 -0.000005 -0.000017 3.008460 -5.000206 7.999080 -0.000117 -2.904400 -175.293021 1.375612 -179.999991 0.000006 -1.030002 175.049621 -2.797538 -0.251211 -0.000000 -0.000003 0.038666 68.778147 6.898075 2.125611 25.456955 -7.355624 0.000004 3.074103 175.885909 0.155329 -0.000005 -0.000004 -1.147709 -4.487608 1.397116 0.173781 -0.000001 -0.000002 -0.043870 69.055186 -6.903053 -2.078462 25.456965 7.355615 -0.000000 
53.450203 -5.963126 91.628395 -1.365511 -0.082081 -5.111505 -1.852311 -0.103304 -0.056388 0.298085 -0.200415 -0.110792 1.943162 -0.201728 -0.108382 20.973274 0.539037 -0.514051 -5.964730 1.169247 -0.570903 14.727180 -73.193571 14.326897 -2.505854 -100.762052 17.075983 0.000000 0.000004 0.000001 14.698065 -7.474303 -0.363760 0.000001 0.000011 -2.999998 -5.000225 -7.999012 0.000142 12.362178 70.834512 -12.193152 -37.023116 105.084079 8.494343 -0.000000 0.000001 0.000002 0.542689 6.986700 0.168158 -0.000004 -0.000016 3.008461 -5.000206 7.999083 -0.000118 -2.905761 -175.308007 1.367208 -179.999991 0.000005 -1.030998 175.052817 -2.797551 -0.251057 -0.000000 -0.000003 0.038666 68.779834 6.898072 2.125606 25.456959 -7.355622 0.000003 3.072174 175.870923 0.146311 -0.000005 -0.000004 -1.147440 -4.498181 1.397604 0.174187 -0.000001 -0.000002 -0.044107 69.064284 -6.903085 -2.078699 25.456962 7.355615 -0.000001 
53.439503 -5.953316 91.622803 -1.363101 -0.068196 -5.130273 -1.851684 -0.104295 -0.058470 0.299343 -0.202987 -0.115988 1.944423 -0.204362 -0.113547 20.927228 0.554460 -0.508350 -5.908456 1.170859 -0.566165 14.491110 -73.158190 14.078809 -2.513233 -100.814166 17.173361 -0.000000 0.000004 -0.000000 14.660540 -7.392025 -0.379329 0.000002 0.000011 -2.999998 -5.000226 -7.999012 0.000142 12.211775 70.795191 -12.036120 -36.628153 105.096278 8.069920 -0.000001 0.000000 0.000003 0.555881 6.965556 0.168137 -0.000005 -0.000016 3.008459 -5.000206 7.999082 -0.000118 -2.907094 -175.324003 1.358857 -179.999991 0.000006 -1.030998 175.055986 -2.797565 -0.250901 -0.000000 -0.000003 0.038666 68.781521 6.898073 2.125599 25.456957 -7.355621 0.000003 3.070265 175.855924 0.137284 -0.000005 -0.000004 -1.147160 -4.508785 1.398101 0.174597 -0.000001 -0.000002 -0.044343 69.073457 -6.903051 -2.079021 25.456964 7.355616 -0.000000 
53.459305 -5.959315 91.597198 -1.360629 -0.054292 -5.148990 -1.851054 -0.105265 -0.060554 0.300587 -0.205514 -0.121177 1.945663 -0.206951 -0.118706 20.880983 0.569082 -0.502517 -5.851906 1.173047 -0.561340 14.256306 -73.122933 13.831979 -2.522221 -100.864279 17.269251 -0.000000 0.000004 -0.000001 14.622965 -7.309727 -0.394799 0.000001 0.000011 -3.000001 -5.000222 -7.999012 0.000144 12.060679 70.755302 -11.878377 -36.233109 105.110280 7.645682 -0.000000 0.000000 0.000002 0.568931 6.944432 0.168126 -0.000004 -0.000016 3.008459 -5.000204 7.999083 -0.000116 -2.908465 -175.339002 1.350456 -179.999991 0.000005 -1.030999 175.059210 -2.796583 -0.250657 -0.000000 -0.000003 0.038665 68.783215 6.898068 2.125594 25.456959 -7.355624 0.000005 3.068318 175.840939 0.128280 -0.000005 -0.000004 -1.146890 -4.519339 1.398580 0.175002 -0.000001 -0.000002 -0.044582 69.082548 -6.903078 -2.079159 25.456960 7.355615 0.000000 
53.462303 -5.960459 91.609589 -1.358058 -0.040342 -5.167586 -1.850453 -0.106188 -0.062643 0.301791 -0.207924 -0.126352 1.946873 -0.209423 -0.123851 20.834329 0.581718 -0.496393 -5.794619 1.176659 -0.556290 14.023403 -73.088666 13.586976 -2.534439 -100.913415 17.362153 -0.000000 0.000004 -0.000000 14.585126 -7.227449 -0.410179 0.000000 0.000011 -3.000002 -5.000228 -7.999010 0.000142 11.906932 70.714192 -11.717867 -35.840236 105.126460 7.224211 -0.000001 -0.000000 0.000003 0.581630 6.923347 0.168120 -0.000004 -0.000016 3.008457 -5.000205 7.999082 -0.000117 -2.909907 -175.353987 1.342066 -179.999991 0.000005 -1.031000 175.062461 -2.797592 -0.250585 -0.000000 -0.000003 0.038665 68.784895 6.898064 2.125589 25.456957 -7.355624 0.000004 3.066287 175.824970 0.119279 -0.000005 -0.000005 -1.146609 -4.529784 1.398999 0.175399 -0.000001 -0.000002 -0.044822 69.091625 -6.903066 -2.079493 25.456964 7.355616 0.000001 
53.463005 -5.960797 91.591003 -1.355298 -0.026316 -5.186003 -1.849873 -0.107031 -0.064738 0.302934 -0.210150 -0.131503 1.948013 -0.211710 -0.128974 20.787061 0.591177 -0.489822 -5.736188 1.182541 -0.550890 13.792642 -73.055785 13.343929 -2.552178 -100.959608 17.450023 0.000000 0.000004 -0.000001 14.546935 -7.145193 -0.425457 -0.000001 0.000011 -3.000001 -5.000224 -7.999011 0.000142 11.748610 70.671038 -11.552559 -35.449594 105.146002 6.805796 -0.000001 0.000001 0.000003 0.593772 6.902315 0.168129 -0.000004 -0.000017 3.008458 -5.000205 7.999084 -0.000119 -2.911477 -175.369956 1.333749 -179.999991 0.000006 -1.030998 175.065767 -2.797605 -0.251421 -0.000000 -0.000003 0.038666 68.786678 6.898033 2.125670 25.456953 -7.355625 0.000005 3.064097 175.809984 0.110422 -0.000005 -0.000005 -1.146339 -4.540066 1.399318 0.175780 -0.000001 -0.000002 -0.045070 69.100607 -6.903083 -2.079735 25.456962 7.355615 -0.000000 
53.459003 -5.961737 91.595100 -1.352278 -0.012185 -5.204157 -1.849345 -0.107768 -0.066841 0.303991 -0.212121 -0.136621 1.949073 -0.213742 -0.134070 20.738882 0.596273 -0.482655 -5.676163 1.191540 -0.545006 13.564664 -73.025275 13.103421 -2.577473 -101.001866 17.530956 0.000000 0.000004 -0.000002 14.508083 -7.062976 -0.440673 0.000000 0.000011 -3.000001 -5.000227 -7.999010 0.000143 11.583859 70.625256 -11.380538 -35.063486 105.169265 6.393206 -0.000001 0.000001 0.000005 0.605144 6.881350 0.168148 -0.000004 -0.000017 3.008459 -5.000206 7.999082 -0.000117 -2.913203 -175.384942 1.325409 -179.999991 0.000005 -1.030998 175.069196 -2.797620 -0.251253 -0.000000 -0.000003 0.038666 68.788372 6.898067 2.125673 25.456957 -7.355623 0.000004 3.061689 175.794985 0.101688 -0.000005 -0.000005 -1.146070 -4.550101 1.399508 0.176141 -0.000001 -0.000002 -0.045323 69.109480 -6.903093 -2.079982 25.456960 7.355615 -0.000001 
